<mxfile host="app.diagrams.net" modified="2022-08-10T03:38:41.796Z" agent="5.0 (Windows)" etag="ioBnhf_fnn7nrfCLael1" version="20.2.3" type="github">
  <diagram id="8_ejHkqMaT7YXRlbnvq8" name="第 1 页">
    <mxGraphModel dx="2733" dy="1907" grid="1" gridSize="10" guides="1" tooltips="1" connect="1" arrows="1" fold="1" page="1" pageScale="1" pageWidth="1169" pageHeight="827" math="0" shadow="0">
      <root>
        <mxCell id="0" />
        <mxCell id="1" parent="0" />
        <mxCell id="RKQ3MhBwQZLhls3FYRcM-22" value="" style="rounded=1;whiteSpace=wrap;html=1;" vertex="1" parent="1">
          <mxGeometry x="-170" y="-290" width="840" height="670" as="geometry" />
        </mxCell>
        <mxCell id="y25ZTmve15Z3kHQcDSzL-1" value="" style="rounded=1;whiteSpace=wrap;html=1;" parent="1" vertex="1">
          <mxGeometry x="-123.3" y="-400" width="840" height="670" as="geometry" />
        </mxCell>
        <mxCell id="RKQ3MhBwQZLhls3FYRcM-53" value="" style="shape=waypoint;sketch=0;fillStyle=solid;size=6;pointerEvents=1;points=[];fillColor=none;resizable=0;rotatable=0;perimeter=centerPerimeter;snapToPoint=1;strokeColor=#000000;strokeWidth=1;" vertex="1" parent="1">
          <mxGeometry x="-72.99999999999991" y="-254" width="40" height="40" as="geometry" />
        </mxCell>
        <mxCell id="RKQ3MhBwQZLhls3FYRcM-55" value="" style="shape=waypoint;sketch=0;fillStyle=solid;size=6;pointerEvents=1;points=[];fillColor=none;resizable=0;rotatable=0;perimeter=centerPerimeter;snapToPoint=1;strokeColor=#000000;strokeWidth=1;" vertex="1" parent="1">
          <mxGeometry x="-52.999999999999915" y="-254" width="40" height="40" as="geometry" />
        </mxCell>
        <mxCell id="RKQ3MhBwQZLhls3FYRcM-54" value="" style="shape=waypoint;sketch=0;fillStyle=solid;size=6;pointerEvents=1;points=[];fillColor=none;resizable=0;rotatable=0;perimeter=centerPerimeter;snapToPoint=1;strokeColor=#000000;strokeWidth=1;" vertex="1" parent="1">
          <mxGeometry x="-62.999999999999915" y="-254" width="40" height="40" as="geometry" />
        </mxCell>
        <mxCell id="RKQ3MhBwQZLhls3FYRcM-18" value="" style="group" vertex="1" connectable="0" parent="1">
          <mxGeometry x="-476.002339061519" y="-371.99599290530136" width="352.70233906151907" height="229.99599290530136" as="geometry" />
        </mxCell>
        <mxCell id="RKQ3MhBwQZLhls3FYRcM-35" value="" style="group" vertex="1" connectable="0" parent="RKQ3MhBwQZLhls3FYRcM-18">
          <mxGeometry x="70.35" y="20" width="265.002339061519" height="209.99599290530136" as="geometry" />
        </mxCell>
        <mxCell id="RKQ3MhBwQZLhls3FYRcM-36" value="" style="shape=parallelogram;perimeter=parallelogramPerimeter;whiteSpace=wrap;html=1;fixedSize=1;size=50.85;direction=west;rotation=-30;fillStyle=auto;fillColor=#FFFFFF;" vertex="1" parent="RKQ3MhBwQZLhls3FYRcM-35">
          <mxGeometry x="73.0023390615191" y="51.03599290530139" width="140.85" height="86.83" as="geometry" />
        </mxCell>
        <mxCell id="RKQ3MhBwQZLhls3FYRcM-37" value="" style="shape=parallelogram;perimeter=parallelogramPerimeter;whiteSpace=wrap;html=1;fixedSize=1;size=50.85;direction=west;rotation=-30;fillStyle=auto;fillColor=#FFFFFF;" vertex="1" parent="RKQ3MhBwQZLhls3FYRcM-35">
          <mxGeometry x="83.0023390615191" y="51.03599290530139" width="140.85" height="86.83" as="geometry" />
        </mxCell>
        <mxCell id="RKQ3MhBwQZLhls3FYRcM-38" value="" style="shape=parallelogram;perimeter=parallelogramPerimeter;whiteSpace=wrap;html=1;fixedSize=1;size=50.85;direction=west;rotation=-30;fillStyle=auto;fillColor=#FFFFFF;" vertex="1" parent="RKQ3MhBwQZLhls3FYRcM-35">
          <mxGeometry x="93.0023390615191" y="51.03599290530139" width="140.85" height="86.83" as="geometry" />
        </mxCell>
        <mxCell id="RKQ3MhBwQZLhls3FYRcM-2" value="" style="shape=parallelogram;perimeter=parallelogramPerimeter;whiteSpace=wrap;html=1;fixedSize=1;size=50.85;direction=west;rotation=-30;fillStyle=auto;fillColor=#FFFFFF;" vertex="1" parent="RKQ3MhBwQZLhls3FYRcM-35">
          <mxGeometry x="-29.997660938480905" y="51.0359929053014" width="140.85" height="86.83" as="geometry" />
        </mxCell>
        <mxCell id="RKQ3MhBwQZLhls3FYRcM-16" value="" style="shape=parallelogram;perimeter=parallelogramPerimeter;whiteSpace=wrap;html=1;fixedSize=1;size=50.85;direction=west;rotation=-30;fillStyle=auto;fillColor=#FFFFFF;" vertex="1" parent="RKQ3MhBwQZLhls3FYRcM-35">
          <mxGeometry x="-19.997660938480905" y="51.0359929053014" width="140.85" height="86.83" as="geometry" />
        </mxCell>
        <mxCell id="RKQ3MhBwQZLhls3FYRcM-17" value="" style="shape=parallelogram;perimeter=parallelogramPerimeter;whiteSpace=wrap;html=1;fixedSize=1;size=50.85;direction=west;rotation=-30;fillStyle=auto;fillColor=#FFFFFF;" vertex="1" parent="RKQ3MhBwQZLhls3FYRcM-35">
          <mxGeometry x="-9.997660938480905" y="51.0359929053014" width="140.85" height="86.83" as="geometry" />
        </mxCell>
        <mxCell id="RKQ3MhBwQZLhls3FYRcM-43" value="" style="group" vertex="1" connectable="0" parent="RKQ3MhBwQZLhls3FYRcM-35">
          <mxGeometry x="60.00233906151908" y="96.86599290530137" width="60" height="40" as="geometry" />
        </mxCell>
        <mxCell id="RKQ3MhBwQZLhls3FYRcM-39" value="" style="shape=waypoint;sketch=0;fillStyle=solid;size=6;pointerEvents=1;points=[];fillColor=none;resizable=0;rotatable=0;perimeter=centerPerimeter;snapToPoint=1;strokeColor=#000000;strokeWidth=1;" vertex="1" parent="RKQ3MhBwQZLhls3FYRcM-43">
          <mxGeometry width="40" height="40" as="geometry" />
        </mxCell>
        <mxCell id="RKQ3MhBwQZLhls3FYRcM-40" value="" style="shape=waypoint;sketch=0;fillStyle=solid;size=6;pointerEvents=1;points=[];fillColor=none;resizable=0;rotatable=0;perimeter=centerPerimeter;snapToPoint=1;strokeColor=#000000;strokeWidth=1;" vertex="1" parent="RKQ3MhBwQZLhls3FYRcM-43">
          <mxGeometry x="10" width="40" height="40" as="geometry" />
        </mxCell>
        <mxCell id="RKQ3MhBwQZLhls3FYRcM-41" value="" style="shape=waypoint;sketch=0;fillStyle=solid;size=6;pointerEvents=1;points=[];fillColor=none;resizable=0;rotatable=0;perimeter=centerPerimeter;snapToPoint=1;strokeColor=#000000;strokeWidth=1;" vertex="1" parent="RKQ3MhBwQZLhls3FYRcM-43">
          <mxGeometry x="20" width="40" height="40" as="geometry" />
        </mxCell>
        <mxCell id="RKQ3MhBwQZLhls3FYRcM-48" value="" style="group" vertex="1" connectable="0" parent="RKQ3MhBwQZLhls3FYRcM-35">
          <mxGeometry x="-44.99766093848092" y="96.86599290530134" width="60" height="40" as="geometry" />
        </mxCell>
        <mxCell id="RKQ3MhBwQZLhls3FYRcM-49" value="" style="shape=waypoint;sketch=0;fillStyle=solid;size=6;pointerEvents=1;points=[];fillColor=none;resizable=0;rotatable=0;perimeter=centerPerimeter;snapToPoint=1;strokeColor=#000000;strokeWidth=1;" vertex="1" parent="RKQ3MhBwQZLhls3FYRcM-48">
          <mxGeometry width="40" height="40" as="geometry" />
        </mxCell>
        <mxCell id="RKQ3MhBwQZLhls3FYRcM-50" value="" style="shape=waypoint;sketch=0;fillStyle=solid;size=6;pointerEvents=1;points=[];fillColor=none;resizable=0;rotatable=0;perimeter=centerPerimeter;snapToPoint=1;strokeColor=#000000;strokeWidth=1;" vertex="1" parent="RKQ3MhBwQZLhls3FYRcM-48">
          <mxGeometry x="10" width="40" height="40" as="geometry" />
        </mxCell>
        <mxCell id="RKQ3MhBwQZLhls3FYRcM-51" value="" style="shape=waypoint;sketch=0;fillStyle=solid;size=6;pointerEvents=1;points=[];fillColor=none;resizable=0;rotatable=0;perimeter=centerPerimeter;snapToPoint=1;strokeColor=#000000;strokeWidth=1;" vertex="1" parent="RKQ3MhBwQZLhls3FYRcM-48">
          <mxGeometry x="20" width="40" height="40" as="geometry" />
        </mxCell>
        <mxCell id="RKQ3MhBwQZLhls3FYRcM-44" value="" style="group" vertex="1" connectable="0" parent="RKQ3MhBwQZLhls3FYRcM-35">
          <mxGeometry x="173.85233906151907" y="92.86599290530134" width="91.14999999999998" height="117.13000000000002" as="geometry" />
        </mxCell>
        <mxCell id="RKQ3MhBwQZLhls3FYRcM-45" value="" style="shape=waypoint;sketch=0;fillStyle=solid;size=6;pointerEvents=1;points=[];fillColor=none;resizable=0;rotatable=0;perimeter=centerPerimeter;snapToPoint=1;strokeColor=#000000;strokeWidth=1;" vertex="1" parent="RKQ3MhBwQZLhls3FYRcM-44">
          <mxGeometry x="-8" y="4" width="40" height="40" as="geometry" />
        </mxCell>
        <mxCell id="RKQ3MhBwQZLhls3FYRcM-46" value="" style="shape=waypoint;sketch=0;fillStyle=solid;size=6;pointerEvents=1;points=[];fillColor=none;resizable=0;rotatable=0;perimeter=centerPerimeter;snapToPoint=1;strokeColor=#000000;strokeWidth=1;" vertex="1" parent="RKQ3MhBwQZLhls3FYRcM-44">
          <mxGeometry x="2" y="4" width="40" height="40" as="geometry" />
        </mxCell>
        <mxCell id="RKQ3MhBwQZLhls3FYRcM-47" value="" style="shape=waypoint;sketch=0;fillStyle=solid;size=6;pointerEvents=1;points=[];fillColor=none;resizable=0;rotatable=0;perimeter=centerPerimeter;snapToPoint=1;strokeColor=#000000;strokeWidth=1;" vertex="1" parent="RKQ3MhBwQZLhls3FYRcM-44">
          <mxGeometry x="12" y="4" width="40" height="40" as="geometry" />
        </mxCell>
        <mxCell id="RKQ3MhBwQZLhls3FYRcM-28" value="" style="rounded=0;whiteSpace=wrap;html=1;fillStyle=auto;strokeColor=#000000;fillColor=none;gradientColor=default;dashed=1;strokeWidth=3;" vertex="1" parent="RKQ3MhBwQZLhls3FYRcM-44">
          <mxGeometry x="-226.85" y="-88" width="290" height="178" as="geometry" />
        </mxCell>
        <mxCell id="RKQ3MhBwQZLhls3FYRcM-21" value="" style="rounded=0;whiteSpace=wrap;html=1;fillStyle=auto;strokeColor=#000000;fillColor=none;gradientColor=default;dashed=1;strokeWidth=3;" vertex="1" parent="1">
          <mxGeometry x="-60" y="-340" width="200" height="170" as="geometry" />
        </mxCell>
        <mxCell id="RKQ3MhBwQZLhls3FYRcM-25" value="" style="rounded=0;whiteSpace=wrap;html=1;fillStyle=auto;strokeColor=#000000;fillColor=none;gradientColor=default;dashed=1;strokeWidth=3;" vertex="1" parent="1">
          <mxGeometry x="-60" y="30" width="200" height="170" as="geometry" />
        </mxCell>
        <mxCell id="RKQ3MhBwQZLhls3FYRcM-26" value="" style="rounded=0;whiteSpace=wrap;html=1;fillStyle=auto;strokeColor=#000000;fillColor=none;gradientColor=default;dashed=1;strokeWidth=3;" vertex="1" parent="1">
          <mxGeometry x="200" y="30" width="200" height="170" as="geometry" />
        </mxCell>
        <mxCell id="RKQ3MhBwQZLhls3FYRcM-27" value="" style="rounded=0;whiteSpace=wrap;html=1;fillStyle=auto;strokeColor=#000000;fillColor=none;gradientColor=default;dashed=1;strokeWidth=3;" vertex="1" parent="1">
          <mxGeometry x="460" y="30" width="200" height="170" as="geometry" />
        </mxCell>
        <mxCell id="RKQ3MhBwQZLhls3FYRcM-29" value="" style="rounded=0;whiteSpace=wrap;html=1;fillStyle=auto;strokeColor=#000000;fillColor=none;gradientColor=default;dashed=1;strokeWidth=3;" vertex="1" parent="1">
          <mxGeometry x="-45" y="-130" width="170" height="130" as="geometry" />
        </mxCell>
        <mxCell id="RKQ3MhBwQZLhls3FYRcM-31" value="" style="rounded=0;whiteSpace=wrap;html=1;fillStyle=auto;strokeColor=#000000;fillColor=none;gradientColor=default;dashed=1;strokeWidth=3;" vertex="1" parent="1">
          <mxGeometry x="215" y="-130" width="170" height="130" as="geometry" />
        </mxCell>
        <mxCell id="RKQ3MhBwQZLhls3FYRcM-32" value="" style="rounded=0;whiteSpace=wrap;html=1;fillStyle=auto;strokeColor=#000000;fillColor=none;gradientColor=default;dashed=1;strokeWidth=3;" vertex="1" parent="1">
          <mxGeometry x="475" y="-130" width="170" height="130" as="geometry" />
        </mxCell>
        <mxCell id="RKQ3MhBwQZLhls3FYRcM-52" value="" style="shape=flexArrow;endArrow=classic;html=1;rounded=0;fillColor=#3333FF;" edge="1" parent="1">
          <mxGeometry width="50" height="50" relative="1" as="geometry">
            <mxPoint x="-158" y="-234.58999999999997" as="sourcePoint" />
            <mxPoint x="-72" y="-234.58999999999997" as="targetPoint" />
          </mxGeometry>
        </mxCell>
        <mxCell id="RKQ3MhBwQZLhls3FYRcM-33" value="" style="shape=cube;whiteSpace=wrap;html=1;boundedLbl=1;backgroundOutline=1;darkOpacity=0.05;darkOpacity2=0.1;fillStyle=auto;strokeColor=#000000;strokeWidth=3;fillColor=none;gradientColor=default;direction=south;size=40;" vertex="1" parent="1">
          <mxGeometry x="-27" y="-330" width="60" height="150" as="geometry" />
        </mxCell>
        <mxCell id="RKQ3MhBwQZLhls3FYRcM-56" value="" style="shape=waypoint;sketch=0;fillStyle=solid;size=6;pointerEvents=1;points=[];fillColor=none;resizable=0;rotatable=0;perimeter=centerPerimeter;snapToPoint=1;strokeColor=#000000;strokeWidth=1;" vertex="1" parent="1">
          <mxGeometry x="1.0000000000000853" y="-254" width="40" height="40" as="geometry" />
        </mxCell>
        <mxCell id="RKQ3MhBwQZLhls3FYRcM-57" value="" style="shape=waypoint;sketch=0;fillStyle=solid;size=6;pointerEvents=1;points=[];fillColor=none;resizable=0;rotatable=0;perimeter=centerPerimeter;snapToPoint=1;strokeColor=#000000;strokeWidth=1;" vertex="1" parent="1">
          <mxGeometry x="21.000000000000085" y="-254" width="40" height="40" as="geometry" />
        </mxCell>
        <mxCell id="RKQ3MhBwQZLhls3FYRcM-58" value="" style="shape=waypoint;sketch=0;fillStyle=solid;size=6;pointerEvents=1;points=[];fillColor=none;resizable=0;rotatable=0;perimeter=centerPerimeter;snapToPoint=1;strokeColor=#000000;strokeWidth=1;" vertex="1" parent="1">
          <mxGeometry x="11.000000000000085" y="-254" width="40" height="40" as="geometry" />
        </mxCell>
        <mxCell id="RKQ3MhBwQZLhls3FYRcM-59" value="" style="shape=cube;whiteSpace=wrap;html=1;boundedLbl=1;backgroundOutline=1;darkOpacity=0.05;darkOpacity2=0.1;fillStyle=auto;strokeColor=#000000;strokeWidth=3;fillColor=none;gradientColor=default;direction=south;size=40;" vertex="1" parent="1">
          <mxGeometry x="45" y="-332" width="60" height="150" as="geometry" />
        </mxCell>
        <mxCell id="RKQ3MhBwQZLhls3FYRcM-61" value="" style="shape=waypoint;sketch=0;fillStyle=solid;size=6;pointerEvents=1;points=[];fillColor=none;resizable=0;rotatable=0;perimeter=centerPerimeter;snapToPoint=1;strokeColor=#000000;strokeWidth=1;" vertex="1" parent="1">
          <mxGeometry x="91.00000000000009" y="-254" width="40" height="40" as="geometry" />
        </mxCell>
        <mxCell id="RKQ3MhBwQZLhls3FYRcM-62" value="" style="shape=waypoint;sketch=0;fillStyle=solid;size=6;pointerEvents=1;points=[];fillColor=none;resizable=0;rotatable=0;perimeter=centerPerimeter;snapToPoint=1;strokeColor=#000000;strokeWidth=1;" vertex="1" parent="1">
          <mxGeometry x="111.00000000000009" y="-254" width="40" height="40" as="geometry" />
        </mxCell>
        <mxCell id="RKQ3MhBwQZLhls3FYRcM-63" value="" style="shape=waypoint;sketch=0;fillStyle=solid;size=6;pointerEvents=1;points=[];fillColor=none;resizable=0;rotatable=0;perimeter=centerPerimeter;snapToPoint=1;strokeColor=#000000;strokeWidth=1;" vertex="1" parent="1">
          <mxGeometry x="101.00000000000009" y="-254" width="40" height="40" as="geometry" />
        </mxCell>
        <mxCell id="RKQ3MhBwQZLhls3FYRcM-89" value="" style="shape=waypoint;sketch=0;fillStyle=solid;size=6;pointerEvents=1;points=[];fillColor=none;resizable=0;rotatable=0;perimeter=centerPerimeter;snapToPoint=1;strokeColor=#000000;strokeWidth=1;" vertex="1" parent="1">
          <mxGeometry x="188.00000000000009" y="-254" width="40" height="40" as="geometry" />
        </mxCell>
        <mxCell id="RKQ3MhBwQZLhls3FYRcM-90" value="" style="shape=waypoint;sketch=0;fillStyle=solid;size=6;pointerEvents=1;points=[];fillColor=none;resizable=0;rotatable=0;perimeter=centerPerimeter;snapToPoint=1;strokeColor=#000000;strokeWidth=1;" vertex="1" parent="1">
          <mxGeometry x="208.00000000000009" y="-254" width="40" height="40" as="geometry" />
        </mxCell>
        <mxCell id="RKQ3MhBwQZLhls3FYRcM-91" value="" style="shape=waypoint;sketch=0;fillStyle=solid;size=6;pointerEvents=1;points=[];fillColor=none;resizable=0;rotatable=0;perimeter=centerPerimeter;snapToPoint=1;strokeColor=#000000;strokeWidth=1;" vertex="1" parent="1">
          <mxGeometry x="198.00000000000009" y="-254" width="40" height="40" as="geometry" />
        </mxCell>
        <mxCell id="RKQ3MhBwQZLhls3FYRcM-92" value="" style="rounded=0;whiteSpace=wrap;html=1;fillStyle=auto;strokeColor=#000000;fillColor=none;gradientColor=default;dashed=1;strokeWidth=3;" vertex="1" parent="1">
          <mxGeometry x="201" y="-320" width="200" height="150" as="geometry" />
        </mxCell>
        <mxCell id="RKQ3MhBwQZLhls3FYRcM-93" value="" style="shape=cube;whiteSpace=wrap;html=1;boundedLbl=1;backgroundOutline=1;darkOpacity=0.05;darkOpacity2=0.1;fillStyle=auto;strokeColor=#000000;strokeWidth=3;fillColor=none;gradientColor=default;direction=south;size=40;" vertex="1" parent="1">
          <mxGeometry x="234" y="-310" width="66" height="130" as="geometry" />
        </mxCell>
        <mxCell id="RKQ3MhBwQZLhls3FYRcM-94" value="" style="shape=waypoint;sketch=0;fillStyle=solid;size=6;pointerEvents=1;points=[];fillColor=none;resizable=0;rotatable=0;perimeter=centerPerimeter;snapToPoint=1;strokeColor=#000000;strokeWidth=1;" vertex="1" parent="1">
          <mxGeometry x="262.0000000000001" y="-254" width="40" height="40" as="geometry" />
        </mxCell>
        <mxCell id="RKQ3MhBwQZLhls3FYRcM-95" value="" style="shape=waypoint;sketch=0;fillStyle=solid;size=6;pointerEvents=1;points=[];fillColor=none;resizable=0;rotatable=0;perimeter=centerPerimeter;snapToPoint=1;strokeColor=#000000;strokeWidth=1;" vertex="1" parent="1">
          <mxGeometry x="282.0000000000001" y="-254" width="40" height="40" as="geometry" />
        </mxCell>
        <mxCell id="RKQ3MhBwQZLhls3FYRcM-96" value="" style="shape=waypoint;sketch=0;fillStyle=solid;size=6;pointerEvents=1;points=[];fillColor=none;resizable=0;rotatable=0;perimeter=centerPerimeter;snapToPoint=1;strokeColor=#000000;strokeWidth=1;" vertex="1" parent="1">
          <mxGeometry x="272.0000000000001" y="-254" width="40" height="40" as="geometry" />
        </mxCell>
        <mxCell id="RKQ3MhBwQZLhls3FYRcM-97" value="" style="shape=cube;whiteSpace=wrap;html=1;boundedLbl=1;backgroundOutline=1;darkOpacity=0.05;darkOpacity2=0.1;fillStyle=auto;strokeColor=#000000;strokeWidth=3;fillColor=none;gradientColor=default;direction=south;size=40;" vertex="1" parent="1">
          <mxGeometry x="306" y="-310" width="64" height="128" as="geometry" />
        </mxCell>
        <mxCell id="RKQ3MhBwQZLhls3FYRcM-98" value="" style="shape=waypoint;sketch=0;fillStyle=solid;size=6;pointerEvents=1;points=[];fillColor=none;resizable=0;rotatable=0;perimeter=centerPerimeter;snapToPoint=1;strokeColor=#000000;strokeWidth=1;" vertex="1" parent="1">
          <mxGeometry x="352.0000000000001" y="-254" width="40" height="40" as="geometry" />
        </mxCell>
        <mxCell id="RKQ3MhBwQZLhls3FYRcM-99" value="" style="shape=waypoint;sketch=0;fillStyle=solid;size=6;pointerEvents=1;points=[];fillColor=none;resizable=0;rotatable=0;perimeter=centerPerimeter;snapToPoint=1;strokeColor=#000000;strokeWidth=1;" vertex="1" parent="1">
          <mxGeometry x="372.0000000000001" y="-254" width="40" height="40" as="geometry" />
        </mxCell>
        <mxCell id="RKQ3MhBwQZLhls3FYRcM-100" value="" style="shape=waypoint;sketch=0;fillStyle=solid;size=6;pointerEvents=1;points=[];fillColor=none;resizable=0;rotatable=0;perimeter=centerPerimeter;snapToPoint=1;strokeColor=#000000;strokeWidth=1;" vertex="1" parent="1">
          <mxGeometry x="362.0000000000001" y="-254" width="40" height="40" as="geometry" />
        </mxCell>
        <mxCell id="RKQ3MhBwQZLhls3FYRcM-114" value="" style="shape=flexArrow;endArrow=classic;html=1;rounded=0;fillColor=#3333FF;" edge="1" parent="1">
          <mxGeometry width="50" height="50" relative="1" as="geometry">
            <mxPoint x="140" y="-234.58999999999997" as="sourcePoint" />
            <mxPoint x="199" y="-234.58999999999997" as="targetPoint" />
          </mxGeometry>
        </mxCell>
        <mxCell id="RKQ3MhBwQZLhls3FYRcM-115" value="" style="shape=waypoint;sketch=0;fillStyle=solid;size=6;pointerEvents=1;points=[];fillColor=none;resizable=0;rotatable=0;perimeter=centerPerimeter;snapToPoint=1;strokeColor=#000000;strokeWidth=1;" vertex="1" parent="1">
          <mxGeometry x="448.0000000000001" y="-234" width="40" height="40" as="geometry" />
        </mxCell>
        <mxCell id="RKQ3MhBwQZLhls3FYRcM-116" value="" style="shape=waypoint;sketch=0;fillStyle=solid;size=6;pointerEvents=1;points=[];fillColor=none;resizable=0;rotatable=0;perimeter=centerPerimeter;snapToPoint=1;strokeColor=#000000;strokeWidth=1;" vertex="1" parent="1">
          <mxGeometry x="468.0000000000001" y="-234" width="40" height="40" as="geometry" />
        </mxCell>
        <mxCell id="RKQ3MhBwQZLhls3FYRcM-117" value="" style="shape=waypoint;sketch=0;fillStyle=solid;size=6;pointerEvents=1;points=[];fillColor=none;resizable=0;rotatable=0;perimeter=centerPerimeter;snapToPoint=1;strokeColor=#000000;strokeWidth=1;" vertex="1" parent="1">
          <mxGeometry x="458.0000000000001" y="-234" width="40" height="40" as="geometry" />
        </mxCell>
        <mxCell id="RKQ3MhBwQZLhls3FYRcM-118" value="" style="rounded=0;whiteSpace=wrap;html=1;fillStyle=auto;strokeColor=#000000;fillColor=none;gradientColor=default;dashed=1;strokeWidth=3;" vertex="1" parent="1">
          <mxGeometry x="461" y="-300" width="200" height="130" as="geometry" />
        </mxCell>
        <mxCell id="RKQ3MhBwQZLhls3FYRcM-119" value="" style="shape=cube;whiteSpace=wrap;html=1;boundedLbl=1;backgroundOutline=1;darkOpacity=0.05;darkOpacity2=0.1;fillStyle=auto;strokeColor=#000000;strokeWidth=3;fillColor=none;gradientColor=default;direction=south;size=40;" vertex="1" parent="1">
          <mxGeometry x="494" y="-290" width="72" height="110" as="geometry" />
        </mxCell>
        <mxCell id="RKQ3MhBwQZLhls3FYRcM-120" value="" style="shape=waypoint;sketch=0;fillStyle=solid;size=6;pointerEvents=1;points=[];fillColor=none;resizable=0;rotatable=0;perimeter=centerPerimeter;snapToPoint=1;strokeColor=#000000;strokeWidth=1;" vertex="1" parent="1">
          <mxGeometry x="522.0000000000001" y="-234" width="40" height="40" as="geometry" />
        </mxCell>
        <mxCell id="RKQ3MhBwQZLhls3FYRcM-121" value="" style="shape=waypoint;sketch=0;fillStyle=solid;size=6;pointerEvents=1;points=[];fillColor=none;resizable=0;rotatable=0;perimeter=centerPerimeter;snapToPoint=1;strokeColor=#000000;strokeWidth=1;" vertex="1" parent="1">
          <mxGeometry x="542.0000000000001" y="-234" width="40" height="40" as="geometry" />
        </mxCell>
        <mxCell id="RKQ3MhBwQZLhls3FYRcM-122" value="" style="shape=waypoint;sketch=0;fillStyle=solid;size=6;pointerEvents=1;points=[];fillColor=none;resizable=0;rotatable=0;perimeter=centerPerimeter;snapToPoint=1;strokeColor=#000000;strokeWidth=1;" vertex="1" parent="1">
          <mxGeometry x="532.0000000000001" y="-234" width="40" height="40" as="geometry" />
        </mxCell>
        <mxCell id="RKQ3MhBwQZLhls3FYRcM-124" value="" style="shape=waypoint;sketch=0;fillStyle=solid;size=6;pointerEvents=1;points=[];fillColor=none;resizable=0;rotatable=0;perimeter=centerPerimeter;snapToPoint=1;strokeColor=#000000;strokeWidth=1;" vertex="1" parent="1">
          <mxGeometry x="612.0000000000001" y="-234" width="40" height="40" as="geometry" />
        </mxCell>
        <mxCell id="RKQ3MhBwQZLhls3FYRcM-125" value="" style="shape=waypoint;sketch=0;fillStyle=solid;size=6;pointerEvents=1;points=[];fillColor=none;resizable=0;rotatable=0;perimeter=centerPerimeter;snapToPoint=1;strokeColor=#000000;strokeWidth=1;" vertex="1" parent="1">
          <mxGeometry x="632.0000000000001" y="-234" width="40" height="40" as="geometry" />
        </mxCell>
        <mxCell id="RKQ3MhBwQZLhls3FYRcM-126" value="" style="shape=waypoint;sketch=0;fillStyle=solid;size=6;pointerEvents=1;points=[];fillColor=none;resizable=0;rotatable=0;perimeter=centerPerimeter;snapToPoint=1;strokeColor=#000000;strokeWidth=1;" vertex="1" parent="1">
          <mxGeometry x="622.0000000000001" y="-234" width="40" height="40" as="geometry" />
        </mxCell>
        <mxCell id="RKQ3MhBwQZLhls3FYRcM-127" value="" style="shape=cube;whiteSpace=wrap;html=1;boundedLbl=1;backgroundOutline=1;darkOpacity=0.05;darkOpacity2=0.1;fillStyle=auto;strokeColor=#000000;strokeWidth=3;fillColor=none;gradientColor=default;direction=south;size=40;" vertex="1" parent="1">
          <mxGeometry x="566" y="-290" width="72" height="110" as="geometry" />
        </mxCell>
        <mxCell id="RKQ3MhBwQZLhls3FYRcM-128" value="" style="shape=flexArrow;endArrow=classic;html=1;rounded=0;fillColor=#3333FF;" edge="1" parent="1">
          <mxGeometry width="50" height="50" relative="1" as="geometry">
            <mxPoint x="402" y="-213.99999999999991" as="sourcePoint" />
            <mxPoint x="461" y="-213.99999999999991" as="targetPoint" />
          </mxGeometry>
        </mxCell>
      </root>
    </mxGraphModel>
  </diagram>
</mxfile>
